<svg xmlns="http://www.w3.org/2000/svg" width="164.56" height="35" viewBox="0 0 164.56 35"><rect class="svg__rect" x="0" y="0" width="61.449999999999996" height="35" fill="#31C4F3"/><rect class="svg__rect" x="59.449999999999996" y="0" width="105.11" height="35" fill="#389AD5"/><path class="svg__text" d="M13.78 19.42L13.78 19.42L15.27 19.42Q15.27 20.15 15.75 20.55Q16.23 20.95 17.12 20.95L17.12 20.95Q17.90 20.95 18.29 20.63Q18.68 20.32 18.68 19.80L18.68 19.80Q18.68 19.24 18.28 18.94Q17.89 18.63 16.85 18.32Q15.82 18.01 15.21 17.63L15.21 17.63Q14.05 16.90 14.05 15.72L14.05 15.72Q14.05 14.69 14.89 14.02Q15.73 13.35 17.07 13.35L17.07 13.35Q17.96 13.35 18.66 13.68Q19.36 14.01 19.75 14.61Q20.15 15.22 20.15 15.96L20.15 15.96L18.68 15.96Q18.68 15.29 18.26 14.91Q17.84 14.54 17.06 14.54L17.06 14.54Q16.33 14.54 15.93 14.85Q15.53 15.16 15.53 15.71L15.53 15.71Q15.53 16.18 15.96 16.50Q16.40 16.81 17.39 17.10Q18.39 17.40 18.99 17.78Q19.60 18.16 19.88 18.65Q20.16 19.13 20.16 19.79L20.16 19.79Q20.16 20.86 19.34 21.49Q18.52 22.12 17.12 22.12L17.12 22.12Q16.20 22.12 15.42 21.77Q14.64 21.43 14.21 20.83Q13.78 20.22 13.78 19.42ZM26.01 22L24.54 22L24.54 13.47L26.01 13.47L26.01 22ZM33.28 22L30.82 22L30.82 13.47L33.34 13.47Q34.47 13.47 35.35 13.97Q36.23 14.48 36.71 15.40Q37.19 16.33 37.19 17.52L37.19 17.52L37.19 17.95Q37.19 19.16 36.70 20.08Q36.22 21.00 35.33 21.50Q34.43 22 33.28 22L33.28 22ZM32.31 14.66L32.31 20.82L33.27 20.82Q34.44 20.82 35.06 20.09Q35.69 19.36 35.70 17.99L35.70 17.99L35.70 17.52Q35.70 16.13 35.09 15.40Q34.49 14.66 33.34 14.66L33.34 14.66L32.31 14.66ZM47.23 22L41.65 22L41.65 13.47L47.19 13.47L47.19 14.66L43.13 14.66L43.13 17.02L46.64 17.02L46.64 18.19L43.13 18.19L43.13 20.82L47.23 20.82L47.23 22Z" fill="#FFFFFF"/><path class="svg__text" d="M76.02 22L73.64 22L73.64 13.60L77.48 13.60Q78.62 13.60 79.46 13.98Q80.30 14.35 80.76 15.06Q81.21 15.76 81.21 16.71L81.21 16.71Q81.21 17.66 80.76 18.35Q80.30 19.05 79.46 19.42Q78.62 19.80 77.48 19.80L77.48 19.80L76.02 19.80L76.02 22ZM76.02 15.47L76.02 17.93L77.34 17.93Q78.07 17.93 78.44 17.61Q78.81 17.29 78.81 16.71L78.81 16.71Q78.81 16.12 78.44 15.80Q78.07 15.47 77.34 15.47L77.34 15.47L76.02 15.47ZM88.34 22L85.97 22L85.97 13.60L89.81 13.60Q90.95 13.60 91.79 13.98Q92.63 14.35 93.09 15.06Q93.54 15.76 93.54 16.71L93.54 16.71Q93.54 17.62 93.11 18.30Q92.69 18.98 91.90 19.36L91.90 19.36L93.71 22L91.16 22L89.64 19.77L88.34 19.77L88.34 22ZM88.34 15.47L88.34 17.93L89.66 17.93Q90.40 17.93 90.77 17.61Q91.14 17.29 91.14 16.71L91.14 16.71Q91.14 16.12 90.77 15.79Q90.40 15.47 89.66 15.47L89.66 15.47L88.34 15.47ZM97.90 17.80L97.90 17.80Q97.90 16.55 98.51 15.55Q99.11 14.56 100.17 14.00Q101.24 13.43 102.57 13.43L102.57 13.43Q103.90 13.43 104.96 14.00Q106.02 14.56 106.63 15.55Q107.24 16.55 107.24 17.80L107.24 17.80Q107.24 19.05 106.63 20.04Q106.02 21.04 104.96 21.60Q103.90 22.17 102.57 22.17L102.57 22.17Q101.24 22.17 100.17 21.60Q99.11 21.04 98.51 20.04Q97.90 19.05 97.90 17.80ZM100.30 17.80L100.30 17.80Q100.30 18.51 100.60 19.05Q100.90 19.60 101.42 19.90Q101.93 20.20 102.57 20.20L102.57 20.20Q103.20 20.20 103.72 19.90Q104.24 19.60 104.53 19.05Q104.83 18.51 104.83 17.80L104.83 17.80Q104.83 17.09 104.53 16.54Q104.24 16 103.72 15.70Q103.20 15.40 102.57 15.40L102.57 15.40Q101.93 15.40 101.41 15.70Q100.90 16 100.60 16.54Q100.30 17.09 100.30 17.80ZM110.89 20.93L110.89 20.93L112.18 19.40Q112.85 20.27 113.62 20.27L113.62 20.27Q113.63 20.27 113.63 20.27L113.63 20.27Q114.15 20.27 114.42 19.96Q114.69 19.65 114.69 19.05L114.69 19.05L114.69 15.44L111.79 15.44L111.79 13.60L117.04 13.60L117.04 18.91Q117.04 20.54 116.22 21.36Q115.40 22.17 113.80 22.17L113.80 22.17Q112.88 22.17 112.12 21.85Q111.37 21.53 110.89 20.93ZM128.87 22L122.13 22L122.13 13.60L128.72 13.60L128.72 15.44L124.49 15.44L124.49 16.85L128.22 16.85L128.22 18.63L124.49 18.63L124.49 20.17L128.87 20.17L128.87 22ZM133.25 17.80L133.25 17.80Q133.25 16.54 133.85 15.54Q134.45 14.55 135.50 13.99Q136.55 13.43 137.87 13.43L137.87 13.43Q139.02 13.43 139.95 13.84Q140.87 14.25 141.48 15.02L141.48 15.02L139.97 16.39Q139.16 15.40 137.99 15.40L137.99 15.40Q137.31 15.40 136.77 15.70Q136.24 16 135.94 16.54Q135.65 17.09 135.65 17.80L135.65 17.80Q135.65 18.51 135.94 19.05Q136.24 19.60 136.77 19.90Q137.31 20.20 137.99 20.20L137.99 20.20Q139.16 20.20 139.97 19.22L139.97 19.22L141.48 20.58Q140.87 21.35 139.95 21.76Q139.02 22.17 137.87 22.17L137.87 22.17Q136.55 22.17 135.50 21.61Q134.45 21.05 133.85 20.05Q133.25 19.06 133.25 17.80ZM147.81 15.48L145.23 15.48L145.23 13.60L152.75 13.60L152.75 15.48L150.18 15.48L150.18 22L147.81 22L147.81 15.48Z" fill="#FFFFFF" x="72.44999999999999"/></svg>