<svg xmlns="http://www.w3.org/2000/svg" width="230.09" height="35" viewBox="0 0 230.09 35"><rect class="svg__rect" x="0" y="0" width="85.53" height="35" fill="#31C4F3"/><rect class="svg__rect" x="83.53" y="0" width="146.56" height="35" fill="#389AD5"/><path class="svg__text" d="M13.78 19.42L13.78 19.42L15.27 19.42Q15.27 20.15 15.75 20.55Q16.23 20.95 17.12 20.95L17.12 20.95Q17.90 20.95 18.29 20.63Q18.68 20.32 18.68 19.80L18.68 19.80Q18.68 19.24 18.28 18.94Q17.89 18.63 16.85 18.32Q15.82 18.01 15.21 17.63L15.21 17.63Q14.05 16.90 14.05 15.72L14.05 15.72Q14.05 14.69 14.89 14.02Q15.73 13.35 17.07 13.35L17.07 13.35Q17.96 13.35 18.66 13.68Q19.36 14.01 19.75 14.61Q20.15 15.22 20.15 15.96L20.15 15.96L18.68 15.96Q18.68 15.29 18.26 14.91Q17.84 14.54 17.06 14.54L17.06 14.54Q16.33 14.54 15.93 14.85Q15.53 15.16 15.53 15.71L15.53 15.71Q15.53 16.18 15.96 16.50Q16.40 16.81 17.39 17.10Q18.39 17.40 18.99 17.78Q19.60 18.16 19.88 18.65Q20.16 19.13 20.16 19.79L20.16 19.79Q20.16 20.86 19.34 21.49Q18.52 22.12 17.12 22.12L17.12 22.12Q16.20 22.12 15.42 21.77Q14.64 21.43 14.21 20.83Q13.78 20.22 13.78 19.42ZM26.13 14.66L23.49 14.66L23.49 13.47L30.26 13.47L30.26 14.66L27.60 14.66L27.60 22L26.13 22L26.13 14.66ZM34.80 22L33.25 22L36.48 13.47L37.81 13.47L41.04 22L39.49 22L38.79 20.01L35.49 20.01L34.80 22ZM37.14 15.28L35.90 18.82L38.38 18.82L37.14 15.28ZM46.67 14.66L44.04 14.66L44.04 13.47L50.80 13.47L50.80 14.66L48.14 14.66L48.14 22L46.67 22L46.67 14.66ZM54.42 19.16L54.42 19.16L54.42 13.47L55.90 13.47L55.90 19.18Q55.90 20.03 56.33 20.48Q56.77 20.93 57.61 20.93L57.61 20.93Q59.32 20.93 59.32 19.13L59.32 19.13L59.32 13.47L60.80 13.47L60.80 19.17Q60.80 20.53 59.93 21.32Q59.06 22.12 57.61 22.12L57.61 22.12Q56.15 22.12 55.29 21.33Q54.42 20.55 54.42 19.16ZM64.94 19.42L64.94 19.42L66.42 19.42Q66.42 20.15 66.90 20.55Q67.38 20.95 68.28 20.95L68.28 20.95Q69.05 20.95 69.44 20.63Q69.83 20.32 69.83 19.80L69.83 19.80Q69.83 19.24 69.43 18.94Q69.04 18.63 68.01 18.32Q66.97 18.01 66.37 17.63L66.37 17.63Q65.20 16.90 65.20 15.72L65.20 15.72Q65.20 14.69 66.04 14.02Q66.88 13.35 68.22 13.35L68.22 13.35Q69.11 13.35 69.81 13.68Q70.51 14.01 70.91 14.61Q71.31 15.22 71.31 15.96L71.31 15.96L69.83 15.96Q69.83 15.29 69.41 14.91Q68.99 14.54 68.21 14.54L68.21 14.54Q67.48 14.54 67.08 14.85Q66.68 15.16 66.68 15.71L66.68 15.71Q66.68 16.18 67.12 16.50Q67.55 16.81 68.55 17.10Q69.54 17.40 70.14 17.78Q70.75 18.16 71.03 18.65Q71.31 19.13 71.31 19.79L71.31 19.79Q71.31 20.86 70.49 21.49Q69.68 22.12 68.28 22.12L68.28 22.12Q67.35 22.12 66.57 21.77Q65.80 21.43 65.37 20.83Q64.94 20.22 64.94 19.42Z" fill="#FFFFFF"/><path class="svg__text" d="M100.10 22L97.72 22L97.72 13.60L100.10 13.60L100.10 22ZM107.60 22L105.27 22L105.27 13.60L107.23 13.60L110.94 18.07L110.94 13.60L113.26 13.60L113.26 22L111.31 22L107.60 17.52L107.60 22ZM127.78 22L125.40 22L125.40 13.60L129.24 13.60Q130.38 13.60 131.22 13.98Q132.06 14.35 132.52 15.06Q132.97 15.76 132.97 16.71L132.97 16.71Q132.97 17.66 132.52 18.35Q132.06 19.05 131.22 19.42Q130.38 19.80 129.24 19.80L129.24 19.80L127.78 19.80L127.78 22ZM127.78 15.47L127.78 17.93L129.09 17.93Q129.83 17.93 130.20 17.61Q130.57 17.29 130.57 16.71L130.57 16.71Q130.57 16.12 130.20 15.80Q129.83 15.47 129.09 15.47L129.09 15.47L127.78 15.47ZM140.10 22L137.73 22L137.73 13.60L141.57 13.60Q142.71 13.60 143.55 13.98Q144.39 14.35 144.84 15.06Q145.30 15.76 145.30 16.71L145.30 16.71Q145.30 17.62 144.87 18.30Q144.45 18.98 143.66 19.36L143.66 19.36L145.47 22L142.92 22L141.40 19.77L140.10 19.77L140.10 22ZM140.10 15.47L140.10 17.93L141.42 17.93Q142.16 17.93 142.53 17.61Q142.90 17.29 142.90 16.71L142.90 16.71Q142.90 16.12 142.53 15.79Q142.16 15.47 141.42 15.47L141.42 15.47L140.10 15.47ZM149.66 17.80L149.66 17.80Q149.66 16.55 150.26 15.55Q150.87 14.56 151.93 14.00Q153.00 13.43 154.33 13.43L154.33 13.43Q155.66 13.43 156.72 14.00Q157.78 14.56 158.39 15.55Q159.00 16.55 159.00 17.80L159.00 17.80Q159.00 19.05 158.39 20.04Q157.78 21.04 156.72 21.60Q155.66 22.17 154.33 22.17L154.33 22.17Q153.00 22.17 151.93 21.60Q150.87 21.04 150.26 20.04Q149.66 19.05 149.66 17.80ZM152.06 17.80L152.06 17.80Q152.06 18.51 152.36 19.05Q152.66 19.60 153.18 19.90Q153.69 20.20 154.33 20.20L154.33 20.20Q154.96 20.20 155.48 19.90Q156.00 19.60 156.29 19.05Q156.59 18.51 156.59 17.80L156.59 17.80Q156.59 17.09 156.29 16.54Q156.00 16 155.48 15.70Q154.96 15.40 154.33 15.40L154.33 15.40Q153.69 15.40 153.17 15.70Q152.66 16 152.36 16.54Q152.06 17.09 152.06 17.80ZM163.30 17.80L163.30 17.80Q163.30 16.54 163.89 15.54Q164.49 14.55 165.56 13.99Q166.63 13.43 167.97 13.43L167.97 13.43Q169.15 13.43 170.09 13.83Q171.02 14.22 171.65 14.97L171.65 14.97L170.13 16.33Q169.29 15.40 168.11 15.40L168.11 15.40Q168.10 15.40 168.09 15.40L168.09 15.40Q167.02 15.40 166.35 16.06Q165.69 16.71 165.69 17.80L165.69 17.80Q165.69 18.50 165.99 19.04Q166.30 19.59 166.84 19.89Q167.37 20.20 168.07 20.20L168.07 20.20Q168.76 20.20 169.35 19.93L169.35 19.93L169.35 17.62L171.45 17.62L171.45 21.10Q170.73 21.61 169.80 21.89Q168.86 22.17 167.92 22.17L167.92 22.17Q166.61 22.17 165.55 21.61Q164.49 21.05 163.89 20.05Q163.30 19.06 163.30 17.80ZM178.82 22L176.44 22L176.44 13.60L180.29 13.60Q181.43 13.60 182.27 13.98Q183.11 14.35 183.56 15.06Q184.02 15.76 184.02 16.71L184.02 16.71Q184.02 17.62 183.59 18.30Q183.17 18.98 182.37 19.36L182.37 19.36L184.18 22L181.64 22L180.12 19.77L178.82 19.77L178.82 22ZM178.82 15.47L178.82 17.93L180.14 17.93Q180.87 17.93 181.25 17.61Q181.62 17.29 181.62 16.71L181.62 16.71Q181.62 16.12 181.25 15.79Q180.87 15.47 180.14 15.47L180.14 15.47L178.82 15.47ZM195.55 22L188.81 22L188.81 13.60L195.40 13.60L195.40 15.44L191.16 15.44L191.16 16.85L194.90 16.85L194.90 18.63L191.16 18.63L191.16 20.17L195.55 20.17L195.55 22ZM199.77 21.24L199.77 21.24L200.55 19.49Q201.11 19.86 201.86 20.09Q202.60 20.32 203.32 20.32L203.32 20.32Q204.69 20.32 204.69 19.64L204.69 19.64Q204.69 19.28 204.30 19.11Q203.91 18.93 203.05 18.74L203.05 18.74Q202.10 18.53 201.46 18.30Q200.83 18.06 200.37 17.55Q199.92 17.03 199.92 16.16L199.92 16.16Q199.92 15.39 200.34 14.77Q200.75 14.15 201.59 13.79Q202.42 13.43 203.63 13.43L203.63 13.43Q204.46 13.43 205.26 13.62Q206.07 13.80 206.68 14.17L206.68 14.17L205.95 15.93Q204.75 15.28 203.62 15.28L203.62 15.28Q202.91 15.28 202.59 15.49Q202.27 15.70 202.27 16.04L202.27 16.04Q202.27 16.37 202.65 16.54Q203.03 16.71 203.88 16.89L203.88 16.89Q204.84 17.10 205.47 17.33Q206.10 17.56 206.57 18.07Q207.03 18.58 207.03 19.46L207.03 19.46Q207.03 20.21 206.61 20.83Q206.19 21.44 205.35 21.80Q204.51 22.17 203.31 22.17L203.31 22.17Q202.29 22.17 201.33 21.92Q200.37 21.67 199.77 21.24ZM211.02 21.24L211.02 21.24L211.80 19.49Q212.36 19.86 213.11 20.09Q213.85 20.32 214.57 20.32L214.57 20.32Q215.94 20.32 215.94 19.64L215.94 19.64Q215.94 19.28 215.55 19.11Q215.16 18.93 214.30 18.74L214.30 18.74Q213.35 18.53 212.71 18.30Q212.08 18.06 211.62 17.55Q211.17 17.03 211.17 16.16L211.17 16.16Q211.17 15.39 211.59 14.77Q212.00 14.15 212.84 13.79Q213.67 13.43 214.88 13.43L214.88 13.43Q215.71 13.43 216.51 13.62Q217.32 13.80 217.93 14.17L217.93 14.17L217.20 15.93Q216.00 15.28 214.87 15.28L214.87 15.28Q214.16 15.28 213.84 15.49Q213.52 15.70 213.52 16.04L213.52 16.04Q213.52 16.37 213.90 16.54Q214.28 16.71 215.13 16.89L215.13 16.89Q216.09 17.10 216.72 17.33Q217.35 17.56 217.82 18.07Q218.28 18.58 218.28 19.46L218.28 19.46Q218.28 20.21 217.86 20.83Q217.44 21.44 216.60 21.80Q215.76 22.17 214.56 22.17L214.56 22.17Q213.54 22.17 212.58 21.92Q211.62 21.67 211.02 21.24Z" fill="#FFFFFF" x="96.53"/></svg>