<svg xmlns="http://www.w3.org/2000/svg" width="171.45000000000002" height="35" viewBox="0 0 171.45000000000002 35"><rect class="svg__rect" x="0" y="0" width="65.06" height="35" fill="#8FC965"/><rect class="svg__rect" x="63.06" y="0" width="108.39000000000001" height="35" fill="#419B5A"/><path class="svg__text" d="M16.25 14.66L13.61 14.66L13.61 13.47L20.38 13.47L20.38 14.66L17.72 14.66L17.72 22L16.25 22L16.25 14.66ZM26.18 18.86L23.31 13.47L24.96 13.47L26.92 17.51L28.88 13.47L30.52 13.47L27.66 18.86L27.66 22L26.18 22L26.18 18.86ZM35.92 22L34.44 22L34.44 13.47L37.70 13.47Q39.13 13.47 39.97 14.21Q40.81 14.96 40.81 16.18L40.81 16.18Q40.81 17.44 39.99 18.13Q39.17 18.83 37.68 18.83L37.68 18.83L35.92 18.83L35.92 22ZM35.92 14.66L35.92 17.64L37.70 17.64Q38.49 17.64 38.91 17.27Q39.32 16.90 39.32 16.19L39.32 16.19Q39.32 15.50 38.90 15.09Q38.48 14.68 37.74 14.66L37.74 14.66L35.92 14.66ZM50.67 22L45.10 22L45.10 13.47L50.63 13.47L50.63 14.66L46.58 14.66L46.58 17.02L50.08 17.02L50.08 18.19L46.58 18.19L46.58 20.82L50.67 20.82L50.67 22Z" fill="#FFFFFF"/><path class="svg__text" d="M79.33 22L76.60 13.60L79.05 13.60L80.74 18.96L82.52 13.60L84.70 13.60L86.39 19.01L88.16 13.60L90.43 13.60L87.70 22L85.16 22L83.55 16.89L81.87 22L79.33 22ZM101.68 22L94.94 22L94.94 13.60L101.53 13.60L101.53 15.44L97.29 15.44L97.29 16.85L101.03 16.85L101.03 18.63L97.29 18.63L97.29 20.17L101.68 20.17L101.68 22ZM111.03 22L106.49 22L106.49 13.60L110.79 13.60Q112.39 13.60 113.23 14.19Q114.07 14.79 114.07 15.79L114.07 15.79Q114.07 16.39 113.78 16.87Q113.48 17.34 112.94 17.62L112.94 17.62Q113.66 17.87 114.07 18.41Q114.48 18.94 114.48 19.70L114.48 19.70Q114.48 20.80 113.59 21.40Q112.70 22 111.03 22L111.03 22ZM108.84 18.58L108.84 20.28L110.83 20.28Q112.08 20.28 112.08 19.43L112.08 19.43Q112.08 18.58 110.83 18.58L110.83 18.58L108.84 18.58ZM108.84 15.31L108.84 16.94L110.47 16.94Q111.67 16.94 111.67 16.12L111.67 16.12Q111.67 15.31 110.47 15.31L110.47 15.31L108.84 15.31ZM127.59 22L125.16 22L128.87 13.60L131.21 13.60L134.93 22L132.46 22L131.80 20.37L128.25 20.37L127.59 22ZM130.02 15.93L128.94 18.61L131.10 18.61L130.02 15.93ZM141.46 22L139.08 22L139.08 13.60L142.93 13.60Q144.06 13.60 144.90 13.98Q145.74 14.35 146.20 15.06Q146.66 15.76 146.66 16.71L146.66 16.71Q146.66 17.66 146.20 18.35Q145.74 19.05 144.90 19.42Q144.06 19.80 142.93 19.80L142.93 19.80L141.46 19.80L141.46 22ZM141.46 15.47L141.46 17.93L142.78 17.93Q143.51 17.93 143.88 17.61Q144.26 17.29 144.26 16.71L144.26 16.71Q144.26 16.12 143.88 15.80Q143.51 15.47 142.78 15.47L142.78 15.47L141.46 15.47ZM153.79 22L151.41 22L151.41 13.60L155.25 13.60Q156.39 13.60 157.23 13.98Q158.07 14.35 158.53 15.06Q158.99 15.76 158.99 16.71L158.99 16.71Q158.99 17.66 158.53 18.35Q158.07 19.05 157.23 19.42Q156.39 19.80 155.25 19.80L155.25 19.80L153.79 19.80L153.79 22ZM153.79 15.47L153.79 17.93L155.11 17.93Q155.84 17.93 156.21 17.61Q156.58 17.29 156.58 16.71L156.58 16.71Q156.58 16.12 156.21 15.80Q155.84 15.47 155.11 15.47L155.11 15.47L153.79 15.47Z" fill="#FFFFFF" x="76.06"/></svg>